<svg xmlns="http://www.w3.org/2000/svg" width="48" height="48" viewBox="0 0 48 48">
    <g fill="none" fill-rule="evenodd">
        <path d="M0 0H48V48H0z"/>
        <path fill="#20273D" fill-rule="nonzero" d="M32.571 9c1.84 0 3.327 1.456 3.424 3.27l.005.19v21.904C36 36.363 34.397 38 32.4 38c-.98 0-1.911-.402-2.586-1.105l-.14-.155-1.317-1.54c-.04-.047-.092-.06-.138-.038l-.034.023-1.26 1.258c-1.57 1.566-4.066 1.607-5.684.13l-.164-.158-1.199-1.218c-.042-.043-.094-.051-.14-.026l-.032.026-1.348 1.554c-1.33 1.533-3.646 1.677-5.151.315-.715-.646-1.143-1.548-1.2-2.506L12 34.337V12.459c0-1.838 1.425-3.355 3.24-3.454L15.429 9H32.57zm0 2H15.43c-.743 0-1.353.579-1.422 1.319l-.007.14v21.878c0 .476.2.93.549 1.245.633.573 1.582.55 2.188-.028l.11-.114 1.341-1.547.085-.093c.795-.815 2.064-.857 2.908-.123l.123.116 1.198 1.219c.79.802 2.039.847 2.88.133l.13-.12 1.298-1.293.044-.04c.85-.758 2.117-.71 2.909.084l.115.124 1.316 1.54c.304.355.743.56 1.205.56.835 0 1.52-.654 1.594-1.487l.007-.149V12.46c0-.758-.567-1.382-1.291-1.452L32.571 11zM23 28c.552 0 1 .448 1 1s-.448 1-1 1h-5c-.552 0-1-.448-1-1s.448-1 1-1h5zm8 0c.552 0 1 .448 1 1s-.448 1-1 1h-3c-.552 0-1-.448-1-1s.448-1 1-1h3zm-7-9c.552 0 1 .448 1 1s-.448 1-1 1h-6c-.552 0-1-.448-1-1s.448-1 1-1h6zm5-4c.552 0 1 .448 1 1s-.448 1-1 1H18c-.552 0-1-.448-1-1s.448-1 1-1h11z"/>
    </g>
</svg>
